<svg viewBox="0 0 390 178" fill="none" xmlns="http://www.w3.org/2000/svg">
<g filter="url(#filter0_f_0_1)">
<circle cx="194.906" cy="88.5656" r="28.6911" fill="#9B14D8"/>
</g>
<circle opacity="0.5" cx="190.137" cy="63.124" r="0.114278" transform="rotate(126.513 190.137 63.124)" fill="white" fill-opacity="0.6"/>
<circle opacity="0.5" cx="183.739" cy="60.1528" r="0.114278" transform="rotate(126.513 183.739 60.1528)" fill="white" fill-opacity="0.6"/>
<circle opacity="0.5" cx="201.565" cy="66.3237" r="0.114278" transform="rotate(126.513 201.565 66.3237)" fill="white" fill-opacity="0.6"/>
<circle opacity="0.5" cx="192.881" cy="58.7807" r="0.114278" transform="rotate(126.513 192.881 58.7807)" fill="white" fill-opacity="0.6"/>
<circle opacity="0.5" cx="181.909" cy="63.5805" r="0.114278" transform="rotate(126.513 181.909 63.5805)" fill="white" fill-opacity="0.6"/>
<circle opacity="0.5" cx="197.84" cy="66.1632" r="0.685668" transform="rotate(90 197.84 66.1632)" fill="white"/>
<circle opacity="0.5" cx="186.067" cy="62.8497" r="0.57139" transform="rotate(90 186.067 62.8497)" fill="white" fill-opacity="0.7"/>
<circle cx="200.127" cy="57.2496" r="0.228556" transform="rotate(90 200.127 57.2496)" fill="white" fill-opacity="0.6"/>
<circle opacity="0.5" cx="197.517" cy="62.6001" r="0.228556" transform="rotate(40.5342 197.517 62.6001)" fill="white" fill-opacity="0.6"/>
<circle opacity="0.5" cx="188.149" cy="60.5404" r="0.228556" transform="rotate(126.513 188.149 60.5404)" fill="white" fill-opacity="0.6"/>
<circle opacity="0.5" cx="196.695" cy="57.7066" r="0.228556" transform="rotate(90 196.695 57.7066)" fill="white" fill-opacity="0.6"/>
<circle opacity="0.5" cx="193.953" cy="65.2491" r="0.228556" transform="rotate(90 193.953 65.2491)" fill="white" fill-opacity="0.6"/>
<circle cx="201.636" cy="61.8626" r="0.623632" transform="rotate(145.989 201.636 61.8626)" fill="white" fill-opacity="0.8"/>
<circle cx="191.67" cy="60.9068" r="0.457112" transform="rotate(90 191.67 60.9068)" fill="white" fill-opacity="0.7"/>
<circle opacity="0.5" cx="0.114278" cy="0.114278" r="0.114278" transform="matrix(0.183056 0.983103 0.983103 -0.183056 169.572 66.0005)" fill="white" fill-opacity="0.6"/>
<circle opacity="0.5" cx="0.114278" cy="0.114278" r="0.114278" transform="matrix(0.183056 0.983103 0.983103 -0.183056 176.627 66.1309)" fill="white" fill-opacity="0.6"/>
<circle opacity="0.5" cx="0.114278" cy="0.114278" r="0.114278" transform="matrix(0.183056 0.983103 0.983103 -0.183056 157.898 63.874)" fill="white" fill-opacity="0.6"/>
<circle opacity="0.5" cx="0.114278" cy="0.114278" r="0.114278" transform="matrix(0.183056 0.983103 0.983103 -0.183056 169.006 60.895)" fill="white" fill-opacity="0.6"/>
<circle opacity="0.5" cx="0.114278" cy="0.114278" r="0.114278" transform="matrix(0.183056 0.983103 0.983103 -0.183056 176.771 70.0142)" fill="white" fill-opacity="0.6"/>
<circle opacity="0.5" cx="0.685668" cy="0.685668" r="0.685668" transform="matrix(-0.437818 0.899064 0.899064 0.437818 161.135 64.5361)" fill="white"/>
<circle opacity="0.5" cx="0.57139" cy="0.57139" r="0.57139" transform="matrix(-0.437818 0.899064 0.899064 0.437818 173.219 66.8628)" fill="white" fill-opacity="0.7"/>
<circle cx="0.228556" cy="0.228556" r="0.228556" transform="matrix(-0.437818 0.899064 0.899064 0.437818 163.193 56.1323)" fill="white" fill-opacity="0.6"/>
<circle opacity="0.5" cx="0.228556" cy="0.228556" r="0.228556" transform="matrix(-0.967844 0.251553 0.251553 0.967844 163.465 62.1118)" fill="white" fill-opacity="0.6"/>
<circle opacity="0.5" cx="0.228556" cy="0.228556" r="0.228556" transform="matrix(0.183056 0.983103 0.983103 -0.183056 172.357 64.4565)" fill="white" fill-opacity="0.6"/>
<circle opacity="0.5" cx="0.228556" cy="0.228556" r="0.228556" transform="matrix(-0.437818 0.899064 0.899064 0.437818 166.076 58.0444)" fill="white" fill-opacity="0.6"/>
<circle opacity="0.5" cx="0.228556" cy="0.228556" r="0.228556" transform="matrix(-0.437818 0.899064 0.899064 0.437818 165.236 66.0264)" fill="white" fill-opacity="0.6"/>
<circle cx="0.623632" cy="0.623632" r="0.623632" transform="matrix(0.500364 0.865815 0.865815 -0.500364 159.066 59.6948)" fill="white" fill-opacity="0.8"/>
<circle cx="0.457112" cy="0.457112" r="0.457112" transform="matrix(-0.437818 0.899064 0.899064 0.437818 169.088 62.8164)" fill="white" fill-opacity="0.7"/>
<circle opacity="0.5" cx="221.346" cy="64.1873" r="0.114278" transform="rotate(156.513 221.346 64.1873)" fill="white" fill-opacity="0.6"/>
<circle opacity="0.5" cx="217.289" cy="58.4144" r="0.114278" transform="rotate(156.513 217.289 58.4144)" fill="white" fill-opacity="0.6"/>
<circle opacity="0.5" cx="229.641" cy="72.6722" r="0.114278" transform="rotate(156.513 229.641 72.6722)" fill="white" fill-opacity="0.6"/>
<circle opacity="0.5" cx="225.891" cy="61.7977" r="0.114278" transform="rotate(156.513 225.891 61.7977)" fill="white" fill-opacity="0.6"/>
<circle opacity="0.5" cx="213.992" cy="60.4691" r="0.114278" transform="rotate(156.513 213.992 60.4691)" fill="white" fill-opacity="0.6"/>
<circle opacity="0.5" cx="226.493" cy="70.6704" r="0.685668" transform="rotate(120 226.493 70.6704)" fill="white"/>
<circle opacity="0.5" cx="217.958" cy="61.9152" r="0.57139" transform="rotate(120 217.958 61.9152)" fill="white" fill-opacity="0.7"/>
<circle cx="232.932" cy="64.0944" r="0.228556" transform="rotate(120 232.932 64.0944)" fill="white" fill-opacity="0.6"/>
<circle opacity="0.5" cx="227.997" cy="67.4235" r="0.228556" transform="rotate(70.5342 227.997 67.4235)" fill="white" fill-opacity="0.6"/>
<circle opacity="0.5" cx="220.914" cy="60.9557" r="0.228556" transform="rotate(156.513 220.914 60.9557)" fill="white" fill-opacity="0.6"/>
<circle opacity="0.5" cx="229.735" cy="62.7756" r="0.228556" transform="rotate(120 229.735 62.7756)" fill="white" fill-opacity="0.6"/>
<circle opacity="0.5" cx="223.587" cy="67.9367" r="0.228556" transform="rotate(120 223.587 67.9367)" fill="white" fill-opacity="0.6"/>
<circle cx="231.934" cy="68.8458" r="0.623632" transform="rotate(175.989 231.934 68.8458)" fill="white" fill-opacity="0.8"/>
<circle cx="223.78" cy="63.033" r="0.457112" transform="rotate(120 223.78 63.033)" fill="white" fill-opacity="0.7"/>
<g filter="url(#filter1_f_0_1)">
<ellipse cx="195.634" cy="97.5077" rx="168.659" ry="21.558" fill="#9B14D8"/>
</g>
<g filter="url(#filter2_f_0_1)">
<ellipse cx="201.817" cy="83.2413" rx="55.0045" ry="11.7301" fill="#9B14D8"/>
</g>
<defs>
<filter id="filter0_f_0_1" x="106.34" y="-0.000209808" width="177.132" height="177.132" filterUnits="userSpaceOnUse" color-interpolation-filters="sRGB">
<feFlood flood-opacity="0" result="BackgroundImageFix"/>
<feBlend mode="normal" in="SourceGraphic" in2="BackgroundImageFix" result="shape"/>
<feGaussianBlur stdDeviation="29.9374" result="effect1_foregroundBlur_0_1"/>
</filter>
<filter id="filter1_f_0_1" x="-3.46017" y="45.5149" width="398.188" height="103.985" filterUnits="userSpaceOnUse" color-interpolation-filters="sRGB">
<feFlood flood-opacity="0" result="BackgroundImageFix"/>
<feBlend mode="normal" in="SourceGraphic" in2="BackgroundImageFix" result="shape"/>
<feGaussianBlur stdDeviation="15.2174" result="effect1_foregroundBlur_0_1"/>
</filter>
<filter id="filter2_f_0_1" x="115.11" y="39.8083" width="173.415" height="86.8658" filterUnits="userSpaceOnUse" color-interpolation-filters="sRGB">
<feFlood flood-opacity="0" result="BackgroundImageFix"/>
<feBlend mode="normal" in="SourceGraphic" in2="BackgroundImageFix" result="shape"/>
<feGaussianBlur stdDeviation="15.8514" result="effect1_foregroundBlur_0_1"/>
</filter>
</defs>
</svg>
